<svg xmlns="http://www.w3.org/2000/svg" xmlns:xlink="http://www.w3.org/1999/xlink" viewBox="0 0 128.76 67.83"><defs><style>.cls-1{fill:#fff;}.cls-2{fill:#e39224;}.cls-3{fill:#e1667e;}.cls-4{fill:url(#Dégradé_sans_nom_31);}</style><linearGradient id="Dégradé_sans_nom_31" x1="39.36" y1="15.33" x2="90.14" y2="15.33" gradientUnits="userSpaceOnUse"><stop offset="0" stop-color="#e39224"/><stop offset="1" stop-color="#e2667e"/></linearGradient></defs><g id="Calque_2" data-name="Calque 2"><g id="Calque_1-2" data-name="Calque 1"><path class="cls-1" d="M36.78,60.83v6.91h-.91V62.58l-2.3,5.16h-.64l-2.31-5.16v5.16h-.91V60.83h1l2.56,5.71,2.56-5.71Z"/><path class="cls-1" d="M43.18,62.27v5.47h-.91v-.8a1.75,1.75,0,0,1-.72.65,2.2,2.2,0,0,1-1,.24,2.44,2.44,0,0,1-1.15-.27,2,2,0,0,1-.8-.79,2.62,2.62,0,0,1-.3-1.29V62.27h.9v3.09a1.75,1.75,0,0,0,.41,1.24A1.48,1.48,0,0,0,40.7,67a1.46,1.46,0,0,0,1.15-.45,1.83,1.83,0,0,0,.42-1.3v-3Z"/><path class="cls-1" d="M45.53,67.62a1.91,1.91,0,0,1-.79-.6,1.63,1.63,0,0,1-.32-.88h.94a1,1,0,0,0,.39.67,1.48,1.48,0,0,0,.9.26,1.27,1.27,0,0,0,.82-.24.69.69,0,0,0,.3-.58.57.57,0,0,0-.32-.53,4.49,4.49,0,0,0-1-.35,6.43,6.43,0,0,1-1-.32,1.68,1.68,0,0,1-.66-.49,1.25,1.25,0,0,1-.28-.86,1.33,1.33,0,0,1,.25-.76,1.74,1.74,0,0,1,.71-.56,2.52,2.52,0,0,1,1-.2,2.21,2.21,0,0,1,1.47.46,1.59,1.59,0,0,1,.6,1.26H47.7a1,1,0,0,0-.34-.7,1.3,1.3,0,0,0-.85-.25,1.33,1.33,0,0,0-.78.21.64.64,0,0,0-.29.54.6.6,0,0,0,.18.45,1.15,1.15,0,0,0,.44.28,5.9,5.9,0,0,0,.73.23,8.2,8.2,0,0,1,1,.32,1.64,1.64,0,0,1,.64.47,1.21,1.21,0,0,1,.27.8,1.37,1.37,0,0,1-.25.82,1.65,1.65,0,0,1-.7.56,2.49,2.49,0,0,1-1.05.2A2.92,2.92,0,0,1,45.53,67.62Z"/><path class="cls-1" d="M50,61.2a.61.61,0,0,1-.18-.45.58.58,0,0,1,.18-.43.6.6,0,0,1,.44-.18.58.58,0,0,1,.43.18.57.57,0,0,1,.17.43.6.6,0,0,1-.17.45.57.57,0,0,1-.43.17A.6.6,0,0,1,50,61.2Zm.88,1.07v5.47h-.91V62.27Z"/><path class="cls-1" d="M52.4,63.51a2.42,2.42,0,0,1,1-1,2.62,2.62,0,0,1,1.38-.35,2.75,2.75,0,0,1,1.67.48A2.37,2.37,0,0,1,57.26,64h-1a1.35,1.35,0,0,0-.54-.79,1.65,1.65,0,0,0-1-.29,1.6,1.6,0,0,0-1.26.53A2.19,2.19,0,0,0,53,65a2.25,2.25,0,0,0,.48,1.54,1.61,1.61,0,0,0,1.26.54,1.67,1.67,0,0,0,1-.29,1.38,1.38,0,0,0,.55-.79h1a2.41,2.41,0,0,1-.88,1.34,2.61,2.61,0,0,1-1.65.5,2.72,2.72,0,0,1-1.38-.34,2.48,2.48,0,0,1-1-1,3.43,3.43,0,0,1,0-3Z"/><path class="cls-1" d="M62.05,67h2.44v.74H61.14v-7h.91Z"/><path class="cls-1" d="M65.49,61.2a.61.61,0,0,1-.18-.45.58.58,0,0,1,.18-.43.6.6,0,0,1,.44-.18.58.58,0,0,1,.43.18.61.61,0,0,1,.17.43.64.64,0,0,1-.17.45.57.57,0,0,1-.43.17A.6.6,0,0,1,65.49,61.2Zm.88,1.07v5.47h-.91V62.27Z"/><path class="cls-1" d="M71,67.74l-2.15-2.41v2.41h-.91V60.35h.91V64.7l2.11-2.43h1.27L69.63,65l2.59,2.75Z"/><path class="cls-1" d="M78,65.35H73.66a1.74,1.74,0,0,0,1.78,1.72,1.73,1.73,0,0,0,1-.28,1.43,1.43,0,0,0,.55-.73h1a2.33,2.33,0,0,1-.88,1.28,2.64,2.64,0,0,1-1.64.49,2.78,2.78,0,0,1-1.39-.34,2.59,2.59,0,0,1-1-1,3.13,3.13,0,0,1-.35-1.5,3.24,3.24,0,0,1,.34-1.49,2.45,2.45,0,0,1,1-1,2.83,2.83,0,0,1,1.41-.34,2.72,2.72,0,0,1,1.38.34,2.31,2.31,0,0,1,.93.93,2.82,2.82,0,0,1,.32,1.34A5.55,5.55,0,0,1,78,65.35ZM76.9,63.71a1.48,1.48,0,0,0-.62-.57A2,2,0,0,0,75.4,63a1.64,1.64,0,0,0-1.17.44,1.76,1.76,0,0,0-.56,1.22h3.46A1.63,1.63,0,0,0,76.9,63.71Z"/><path class="cls-1" d="M86.82,60.78l-2.27,4.34v2.62h-.91V65.12l-2.28-4.34h1l1.72,3.53,1.72-3.53Z"/><path class="cls-1" d="M88.78,67.49a2.48,2.48,0,0,1-1-1,3,3,0,0,1-.36-1.5,2.9,2.9,0,0,1,.37-1.48,2.48,2.48,0,0,1,1-1,3.09,3.09,0,0,1,2.82,0,2.61,2.61,0,0,1,1,1A3,3,0,0,1,93,65a2.93,2.93,0,0,1-.37,1.5,2.65,2.65,0,0,1-1,1,2.92,2.92,0,0,1-1.42.34A2.81,2.81,0,0,1,88.78,67.49Zm2.31-.68a1.85,1.85,0,0,0,.7-.69A2.3,2.3,0,0,0,92.05,65a2.21,2.21,0,0,0-.26-1.12,1.71,1.71,0,0,0-.68-.68A1.88,1.88,0,0,0,90.2,63a1.86,1.86,0,0,0-.91.22,1.69,1.69,0,0,0-.67.68A2.44,2.44,0,0,0,88.37,65a2.28,2.28,0,0,0,.25,1.13,1.61,1.61,0,0,0,.65.69,1.87,1.87,0,0,0,.9.22A1.92,1.92,0,0,0,91.09,66.81Z"/><path class="cls-1" d="M99,62.27v5.47h-.91v-.8a1.75,1.75,0,0,1-.72.65,2.2,2.2,0,0,1-1,.24,2.44,2.44,0,0,1-1.15-.27,1.9,1.9,0,0,1-.8-.79,2.62,2.62,0,0,1-.3-1.29V62.27H95v3.09a1.75,1.75,0,0,0,.41,1.24,1.48,1.48,0,0,0,1.12.43,1.46,1.46,0,0,0,1.15-.45,1.83,1.83,0,0,0,.42-1.3v-3Z"/><path class="cls-1" d="M15,38.25V52H12.21V43L8.53,52H6.45L2.75,43V52H0V38.25H3.13l4.36,10.2,4.37-10.2Z"/><path class="cls-1" d="M28,41.08V52H25.19V50.59a3.65,3.65,0,0,1-1.39,1.12,4.43,4.43,0,0,1-1.86.4,4.63,4.63,0,0,1-2.26-.54A3.78,3.78,0,0,1,18.14,50a5.27,5.27,0,0,1-.56-2.5V41.08h2.75v6a2.85,2.85,0,0,0,.65,2,2.28,2.28,0,0,0,1.77.7,2.31,2.31,0,0,0,1.79-.7,2.85,2.85,0,0,0,.65-2v-6Z"/><path class="cls-1" d="M32.44,51.67a4.44,4.44,0,0,1-1.68-1.31,3.34,3.34,0,0,1-.68-1.83h2.78a1.49,1.49,0,0,0,.62,1,2.12,2.12,0,0,0,1.34.41,2.07,2.07,0,0,0,1.23-.31,1,1,0,0,0,.45-.81.84.84,0,0,0-.54-.79,10.29,10.29,0,0,0-1.73-.58,15.14,15.14,0,0,1-2-.61,3.38,3.38,0,0,1-1.34-1,2.59,2.59,0,0,1-.56-1.75,2.81,2.81,0,0,1,.52-1.65,3.52,3.52,0,0,1,1.5-1.18,5.54,5.54,0,0,1,2.29-.43,4.64,4.64,0,0,1,3.1,1A3.6,3.6,0,0,1,39,44.5H36.4a1.42,1.42,0,0,0-.54-1,2.41,2.41,0,0,0-2.44-.11.87.87,0,0,0-.41.76.91.91,0,0,0,.56.84,8.45,8.45,0,0,0,1.71.58,15.11,15.11,0,0,1,1.94.61,3.42,3.42,0,0,1,1.33,1,2.68,2.68,0,0,1,.58,1.74,2.84,2.84,0,0,1-.52,1.69,3.55,3.55,0,0,1-1.49,1.18,6.32,6.32,0,0,1-4.68-.06Z"/><path class="cls-2" d="M42.79,39.78A1.72,1.72,0,0,0,44,39.32a1.53,1.53,0,0,0,.48-1.15A1.52,1.52,0,0,0,44,37a1.79,1.79,0,0,0-2.42,0,1.52,1.52,0,0,0-.48,1.15,1.53,1.53,0,0,0,.48,1.15A1.7,1.7,0,0,0,42.79,39.78Z"/><rect class="cls-1" x="41.39" y="41.08" width="2.75" height="10.89"/><path class="cls-1" d="M46.84,43.56a4.87,4.87,0,0,1,1.91-2,5.45,5.45,0,0,1,2.79-.7,5.38,5.38,0,0,1,3.35,1,4.9,4.9,0,0,1,1.78,2.84h-3a2.21,2.21,0,0,0-.79-1.11,2.33,2.33,0,0,0-1.39-.4,2.25,2.25,0,0,0-1.87.86A3.77,3.77,0,0,0,49,46.52a3.74,3.74,0,0,0,.69,2.41,2.28,2.28,0,0,0,1.87.86,2.09,2.09,0,0,0,2.18-1.5h3a5.06,5.06,0,0,1-1.79,2.82,5.28,5.28,0,0,1-3.34,1,5.56,5.56,0,0,1-2.79-.7,4.9,4.9,0,0,1-1.91-2,6.69,6.69,0,0,1,0-5.92Z"/><path class="cls-1" d="M66.13,40.47v3.44h4.62v2.18H66.13v3.64h5.21V52h-8V38.23h8v2.24Z"/><path class="cls-1" d="M83,42.15a4.7,4.7,0,0,1,1.2,3.43V52H81.47V46a2.82,2.82,0,0,0-.65-2,2.31,2.31,0,0,0-1.77-.7,2.34,2.34,0,0,0-1.8.7,2.78,2.78,0,0,0-.66,2v6H73.84V41.08h2.75v1.35A3.87,3.87,0,0,1,78,41.32a4.3,4.3,0,0,1,1.87-.4A4.2,4.2,0,0,1,83,42.15Z"/><path class="cls-1" d="M93.25,41.38a4,4,0,0,1,1.45,1.25V41.08h2.77v11a5.77,5.77,0,0,1-.61,2.7A4.39,4.39,0,0,1,95,56.64a5.78,5.78,0,0,1-3,.7,6.31,6.31,0,0,1-3.8-1.08,4,4,0,0,1-1.68-2.95h2.73a2.07,2.07,0,0,0,.94,1.19,3.26,3.26,0,0,0,1.74.44A2.67,2.67,0,0,0,94,54.22a2.87,2.87,0,0,0,.75-2.17V50.36a4.16,4.16,0,0,1-1.46,1.28,4.42,4.42,0,0,1-2.14.51,4.7,4.7,0,0,1-2.52-.71,4.84,4.84,0,0,1-1.79-2,6.9,6.9,0,0,1,0-5.89A4.74,4.74,0,0,1,91.1,40.9,4.63,4.63,0,0,1,93.25,41.38Zm1.06,3.42a2.88,2.88,0,0,0-1.06-1.1,2.92,2.92,0,0,0-1.44-.38,2.81,2.81,0,0,0-1.42.37,2.9,2.9,0,0,0-1,1.09,3.42,3.42,0,0,0-.4,1.7,3.56,3.56,0,0,0,.4,1.73,3,3,0,0,0,1.06,1.13,2.73,2.73,0,0,0,1.41.39,2.78,2.78,0,0,0,2.5-1.49,4,4,0,0,0,0-3.44Z"/><path class="cls-3" d="M101.56,39.78a1.7,1.7,0,0,0,1.21-.46,1.53,1.53,0,0,0,.48-1.15,1.52,1.52,0,0,0-.48-1.15,1.79,1.79,0,0,0-2.42,0,1.52,1.52,0,0,0-.48,1.15,1.53,1.53,0,0,0,.48,1.15A1.72,1.72,0,0,0,101.56,39.78Z"/><rect class="cls-1" x="100.17" y="41.08" width="2.75" height="10.89"/><path class="cls-1" d="M114.82,42.15a4.7,4.7,0,0,1,1.2,3.43V52h-2.76V46a2.78,2.78,0,0,0-.65-2,2.28,2.28,0,0,0-1.77-.7,2.34,2.34,0,0,0-1.8.7,2.82,2.82,0,0,0-.65,2v6h-2.76V41.08h2.76v1.35a3.76,3.76,0,0,1,1.4-1.11,4.34,4.34,0,0,1,1.88-.4A4.2,4.2,0,0,1,114.82,42.15Z"/><path class="cls-1" d="M128.68,47.35h-8a2.71,2.71,0,0,0,.82,1.85,2.58,2.58,0,0,0,1.79.67,2.24,2.24,0,0,0,2.18-1.32h3a4.91,4.91,0,0,1-1.81,2.58,5.24,5.24,0,0,1-3.28,1,5.72,5.72,0,0,1-2.82-.7,5,5,0,0,1-1.95-2,6.1,6.1,0,0,1-.7-2.95,6.2,6.2,0,0,1,.69-3,4.79,4.79,0,0,1,1.93-2,6.17,6.17,0,0,1,5.63,0,4.66,4.66,0,0,1,1.91,1.9,5.77,5.77,0,0,1,.68,2.82A6.73,6.73,0,0,1,128.68,47.35Zm-2.77-1.85a2.2,2.2,0,0,0-.77-1.7,2.71,2.71,0,0,0-1.83-.64,2.52,2.52,0,0,0-1.72.62,2.67,2.67,0,0,0-.85,1.72Z"/><path class="cls-4" d="M41.23,0h-.75a1.12,1.12,0,0,0-1.12,1.12V30.66h3V1.12A1.12,1.12,0,0,0,41.23,0Zm6,5h-.76a1.12,1.12,0,0,0-1.12,1.11V30.66h3V6.07A1.11,1.11,0,0,0,47.21,5Zm6,4.94h-.76A1.12,1.12,0,0,0,51.31,11V30.66h3V11A1.12,1.12,0,0,0,53.18,9.9Zm6,4.95H58.4A1.12,1.12,0,0,0,57.28,16V30.66h3V16A1.12,1.12,0,0,0,59.16,14.85Zm6,5h-.76a1.12,1.12,0,0,0-1.11,1.12v9.74h3V20.92A1.11,1.11,0,0,0,65.13,19.8Zm6-5h-.75A1.12,1.12,0,0,0,69.23,16V30.66h3V16A1.12,1.12,0,0,0,71.1,14.85Zm6-4.95h-.76A1.12,1.12,0,0,0,75.21,11V30.66h3V11A1.12,1.12,0,0,0,77.08,9.9Zm6-4.94H82.3a1.12,1.12,0,0,0-1.12,1.11V30.66h3V6.07A1.12,1.12,0,0,0,83.05,5Zm6-5h-.76a1.11,1.11,0,0,0-1.11,1.12V30.66h3V1.12A1.12,1.12,0,0,0,89,0Z"/></g></g></svg>