<svg xmlns="http://www.w3.org/2000/svg" xmlns:xlink="http://www.w3.org/1999/xlink" viewBox="0 0 303.04 37.98"><defs><style>.cls-1{fill:#fff;}.cls-2{fill:#e67d13;}.cls-3{fill:#e8486c;}.cls-4{fill:url(#Dégradé_sans_nom_31);}</style><linearGradient id="Dégradé_sans_nom_31" y1="15.33" x2="50.78" y2="15.33" gradientUnits="userSpaceOnUse"><stop offset="0" stop-color="#e67d13"/><stop offset="1" stop-color="#e8486c"/></linearGradient></defs><g id="Calque_2" data-name="Calque 2"><g id="Calque_1-2" data-name="Calque 1"><path class="cls-1" d="M95.11,3.09V28.17h-5V11.86L83.36,28.17H79.55L72.79,11.86V28.17h-5V3.09h5.72l8,18.65,8-18.65Z"/><path class="cls-1" d="M118.86,8.26V28.17h-5.07V25.65a6.59,6.59,0,0,1-2.53,2,7.76,7.76,0,0,1-3.4.74,8.41,8.41,0,0,1-4.13-1,7,7,0,0,1-2.82-2.91,9.65,9.65,0,0,1-1-4.58V8.26h5v11a5.17,5.17,0,0,0,1.18,3.65,4.77,4.77,0,0,0,6.5,0,5.17,5.17,0,0,0,1.19-3.65v-11Z"/><path class="cls-1" d="M127.05,27.61A7.57,7.57,0,0,1,124,25.22a6,6,0,0,1-1.24-3.34h5.06a2.82,2.82,0,0,0,1.13,1.91,4,4,0,0,0,2.47.75,3.85,3.85,0,0,0,2.24-.57,1.76,1.76,0,0,0,.81-1.48,1.55,1.55,0,0,0-1-1.45A17.63,17.63,0,0,0,130.32,20a25.75,25.75,0,0,1-3.65-1.12,6.24,6.24,0,0,1-2.44-1.76,4.67,4.67,0,0,1-1-3.19,5.12,5.12,0,0,1,1-3,6.37,6.37,0,0,1,2.73-2.16,10.16,10.16,0,0,1,4.18-.79,8.53,8.53,0,0,1,5.68,1.78,6.61,6.61,0,0,1,2.34,4.8h-4.82a2.6,2.6,0,0,0-1-1.89,3.64,3.64,0,0,0-2.35-.7,3.74,3.74,0,0,0-2.1.5,1.62,1.62,0,0,0-.74,1.4,1.66,1.66,0,0,0,1,1.53,15.47,15.47,0,0,0,3.12,1.06,26.9,26.9,0,0,1,3.56,1.11,6.49,6.49,0,0,1,2.43,1.78,5,5,0,0,1,1.06,3.18,5.24,5.24,0,0,1-1,3.09,6.19,6.19,0,0,1-2.73,2.14,10.25,10.25,0,0,1-4.15.77A10.42,10.42,0,0,1,127.05,27.61Z"/><path class="cls-2" d="M146,5.89a3.09,3.09,0,0,0,2.21-.84A2.82,2.82,0,0,0,149,3a2.85,2.85,0,0,0-.88-2.11A3.09,3.09,0,0,0,146,0a3.06,3.06,0,0,0-2.21.84A2.81,2.81,0,0,0,142.86,3a2.79,2.79,0,0,0,.88,2.1A3.06,3.06,0,0,0,146,5.89Z"/><rect class="cls-1" x="143.4" y="8.26" width="5.03" height="19.91"/><path class="cls-1" d="M153.35,12.81a8.94,8.94,0,0,1,3.49-3.59,10.06,10.06,0,0,1,5.1-1.28,9.81,9.81,0,0,1,6.12,1.85A9.08,9.08,0,0,1,171.32,15h-5.43a4,4,0,0,0-1.45-2,4.26,4.26,0,0,0-2.54-.73,4.14,4.14,0,0,0-3.41,1.56,6.91,6.91,0,0,0-1.26,4.44,6.84,6.84,0,0,0,1.26,4.4,4.14,4.14,0,0,0,3.41,1.56,3.81,3.81,0,0,0,4-2.73h5.43a9.27,9.27,0,0,1-3.27,5.14,9.64,9.64,0,0,1-6.11,1.9,10.05,10.05,0,0,1-5.1-1.27,9,9,0,0,1-3.49-3.59,11.17,11.17,0,0,1-1.26-5.41A11.14,11.14,0,0,1,153.35,12.81Z"/><path class="cls-1" d="M188.6,7.15v6.29H197v4H188.6v6.64h9.52v4.1H183.57V3.05h14.55v4.1Z"/><path class="cls-1" d="M219.46,10.22a8.62,8.62,0,0,1,2.2,6.27V28.17h-5v-11a5.15,5.15,0,0,0-1.18-3.65,4.21,4.21,0,0,0-3.24-1.28,4.29,4.29,0,0,0-3.28,1.28,5.07,5.07,0,0,0-1.21,3.65v11h-5V8.26h5v2.48a7,7,0,0,1,2.57-2A8,8,0,0,1,213.71,8,7.68,7.68,0,0,1,219.46,10.22Z"/><path class="cls-1" d="M238.15,8.82a7.35,7.35,0,0,1,2.66,2.28V8.26h5.06v20a10.69,10.69,0,0,1-1.11,4.94,8.28,8.28,0,0,1-3.34,3.45A10.72,10.72,0,0,1,236,38a11.52,11.52,0,0,1-7-2A7.33,7.33,0,0,1,226,30.61h5a3.73,3.73,0,0,0,1.7,2.18,6,6,0,0,0,3.18.81,4.91,4.91,0,0,0,3.56-1.32,5.25,5.25,0,0,0,1.37-4V25.22a7.59,7.59,0,0,1-2.68,2.34,8,8,0,0,1-3.9.93,8.56,8.56,0,0,1-4.6-1.29,9,9,0,0,1-3.29-3.65,11.73,11.73,0,0,1-1.2-5.4,11.56,11.56,0,0,1,1.2-5.36,8.91,8.91,0,0,1,3.27-3.59,8.71,8.71,0,0,1,4.62-1.26A8.36,8.36,0,0,1,238.15,8.82Zm1.94,6.25a5.22,5.22,0,0,0-7.15-2A5.24,5.24,0,0,0,231,15a6.25,6.25,0,0,0-.73,3.11,6.47,6.47,0,0,0,.73,3.14A5.39,5.39,0,0,0,233,23.36a5,5,0,0,0,2.57.71,5.18,5.18,0,0,0,2.63-.7,5,5,0,0,0,1.94-2,6.42,6.42,0,0,0,.72-3.14A6.46,6.46,0,0,0,240.09,15.07Z"/><path class="cls-3" d="M253.34,5.89a3.1,3.1,0,0,0,2.22-.84,2.82,2.82,0,0,0,.88-2.1,2.85,2.85,0,0,0-.88-2.11A3.1,3.1,0,0,0,253.34,0a3,3,0,0,0-2.2.84A2.81,2.81,0,0,0,250.26,3a2.79,2.79,0,0,0,.88,2.1A3,3,0,0,0,253.34,5.89Z"/><rect class="cls-1" x="250.79" y="8.26" width="5.03" height="19.91"/><path class="cls-1" d="M277.56,10.22a8.61,8.61,0,0,1,2.19,6.27V28.17h-5v-11a5.15,5.15,0,0,0-1.18-3.65,4.21,4.21,0,0,0-3.24-1.28A4.29,4.29,0,0,0,267,13.53a5.07,5.07,0,0,0-1.21,3.65v11h-5V8.26h5v2.48a7,7,0,0,1,2.57-2A8,8,0,0,1,271.81,8,7.68,7.68,0,0,1,277.56,10.22Z"/><path class="cls-1" d="M302.9,19.73H288.34a4.92,4.92,0,0,0,1.51,3.37,4.65,4.65,0,0,0,3.27,1.23,4.12,4.12,0,0,0,4-2.41h5.42a9,9,0,0,1-3.3,4.72,9.61,9.61,0,0,1-6,1.85,10.39,10.39,0,0,1-5.16-1.27,8.94,8.94,0,0,1-3.55-3.61,11,11,0,0,1-1.28-5.39,11.28,11.28,0,0,1,1.26-5.43A8.76,8.76,0,0,1,288,9.2a11.29,11.29,0,0,1,10.29,0,8.64,8.64,0,0,1,3.49,3.47A10.48,10.48,0,0,1,303,17.79,12.71,12.71,0,0,1,302.9,19.73Zm-5.07-3.38a4,4,0,0,0-1.4-3.11,5,5,0,0,0-3.35-1.17,4.59,4.59,0,0,0-3.14,1.13,5,5,0,0,0-1.56,3.15Z"/><path class="cls-4" d="M1.87,0H1.12A1.12,1.12,0,0,0,0,1.12V30.66H3V1.12A1.12,1.12,0,0,0,1.87,0Zm6,5H7.09A1.12,1.12,0,0,0,6,6.07V30.66H9V6.07A1.11,1.11,0,0,0,7.85,5Zm6,4.94h-.76A1.12,1.12,0,0,0,12,11V30.66h3V11A1.12,1.12,0,0,0,13.82,9.9Zm6,4.95H19A1.12,1.12,0,0,0,17.92,16V30.66h3V16A1.12,1.12,0,0,0,19.8,14.85Zm6,5H25a1.12,1.12,0,0,0-1.11,1.12v9.74h3V20.92A1.11,1.11,0,0,0,25.77,19.8Zm6-5H31A1.12,1.12,0,0,0,29.87,16V30.66h3V16A1.12,1.12,0,0,0,31.74,14.85Zm6-4.95H37A1.12,1.12,0,0,0,35.85,11V30.66h3V11A1.12,1.12,0,0,0,37.72,9.9Zm6-4.94h-.75a1.12,1.12,0,0,0-1.12,1.11V30.66h3V6.07A1.12,1.12,0,0,0,43.69,5Zm6-5h-.76A1.11,1.11,0,0,0,47.8,1.12V30.66h3V1.12A1.12,1.12,0,0,0,49.67,0Z"/></g></g></svg>